<svg width="60" height="43" viewBox="0 0 60 43" fill="none" xmlns="http://www.w3.org/2000/svg">
<g id="WeatherIcon - 2-39" filter="url(#filter0_f_60_654)">
<g id="Group Sun">
<path id="Ellipse 1" d="M14.854 30.9828C22.6879 30.9828 29.0385 24.5999 29.0385 16.7262C29.0385 8.85259 22.6879 2.46973 14.854 2.46973C7.02006 2.46973 0.669434 8.85259 0.669434 16.7262C0.669434 24.5999 7.02006 30.9828 14.854 30.9828Z" fill="#FA9E42"/>
<g id="Ellipse 2" filter="url(#filter1_f_60_654)">
<path d="M13.8289 14.6995C18.5431 12.1956 21.1799 7.93495 19.7183 5.18312C18.2567 2.43129 13.2501 2.23034 8.5359 4.73428C3.82165 7.23822 1.18488 11.4989 2.6465 14.2507C4.10812 17.0025 9.11465 17.2035 13.8289 14.6995Z" fill="#F8E36F"/>
</g>
</g>
<g id="Group Cloud 2">
<g id="Group" filter="url(#filter2_d_60_654)">
<g id="Union shadow">
<path id="Vector" d="M42.769 40.1998H15.2018C12.5275 40.1978 9.95776 39.1613 8.03041 37.3074C6.10306 35.4535 4.96757 32.926 4.86165 30.2538C4.75573 27.5817 5.6876 24.9722 7.46217 22.9715C9.23673 20.9709 11.7164 19.7343 14.3821 19.5206C14.7622 16.8364 15.9744 14.3389 17.848 12.3794C19.7216 10.42 22.1623 9.09726 24.8269 8.59733C27.4914 8.0974 30.2457 8.44543 32.7021 9.59245C35.1586 10.7395 37.1936 12.6278 38.5209 14.9917C40.9553 14.149 43.5856 14.0505 46.0762 14.7088C48.5668 15.3672 50.8049 16.7525 52.5049 18.6881C54.205 20.6237 55.2899 23.0218 55.6214 25.5765C55.9529 28.1313 55.5159 30.7269 54.3661 33.0322C53.6913 35.115 52.3741 36.9306 50.6034 38.2183C48.8328 39.506 46.6997 40.1997 44.5103 40.1998H42.769Z" fill="url(#paint0_linear_60_654)"/>
<path id="Vector_2" d="M44.5101 40.0561C45.6217 40.0561 46.7147 39.8786 47.7587 39.5285C48.7682 39.19 49.716 38.696 50.5757 38.0602C51.4254 37.4318 52.1704 36.679 52.7898 35.8227C53.4168 34.9558 53.901 34.0022 54.2288 32.9882L54.2321 32.9779L54.237 32.9681C54.673 32.0971 55.0086 31.1758 55.2347 30.2297C55.4674 29.2561 55.5853 28.2501 55.5853 27.2396C55.5853 26.3699 55.4977 25.5009 55.3249 24.6565C55.1566 23.8337 54.9053 23.0243 54.5782 22.2509C54.257 21.4915 53.8594 20.7591 53.3965 20.0739C52.938 19.3952 52.4115 18.757 51.8314 18.177C51.2514 17.597 50.6132 17.0704 49.9345 16.6119C49.2494 16.149 48.5169 15.7515 47.7575 15.4303C46.9841 15.1032 46.1748 14.8519 45.3519 14.6835C44.5076 14.5108 43.6385 14.4231 42.7688 14.4231C41.3288 14.4231 39.9154 14.6601 38.5678 15.1275L38.454 15.1669L38.395 15.062C37.2983 13.1119 35.7031 11.4742 33.7817 10.326C32.81 9.74524 31.7661 9.29649 30.6789 8.99216C29.5573 8.6782 28.3923 8.51901 27.2163 8.51901C25.6344 8.51901 24.0903 8.8037 22.6267 9.36519C21.2129 9.9076 19.9159 10.6911 18.7718 11.694C17.6342 12.6912 16.6902 13.8677 15.966 15.1909C15.224 16.5466 14.739 18.01 14.5245 19.5404L14.5084 19.655L14.3931 19.664C13.1031 19.765 11.8619 20.1046 10.7041 20.6735C9.57907 21.2263 8.57446 21.9739 7.71818 22.8957C5.9587 24.7897 4.98971 27.2574 4.98971 29.8443C4.98971 31.2229 5.25969 32.5602 5.79215 33.8191C6.04807 34.4242 6.36484 35.0078 6.73365 35.5537C7.09898 36.0944 7.51855 36.603 7.98069 37.0651C8.44283 37.5272 8.95135 37.9468 9.49211 38.3121C10.038 38.681 10.6216 38.9977 11.2267 39.2536C12.4855 39.7861 13.8229 40.0561 15.2015 40.0561H42.7688H44.5101ZM44.5101 40.2001H42.7688H15.2015C9.48218 40.2001 4.8457 35.5636 4.8457 29.8443C4.8457 24.4007 9.04557 19.9381 14.3819 19.5204C15.2645 13.2218 20.6743 8.375 27.2163 8.375C32.0696 8.375 36.2997 11.0424 38.5206 14.9914C39.8515 14.5299 41.2808 14.2791 42.7688 14.2791C49.9267 14.2791 55.7293 20.0818 55.7293 27.2396C55.7293 29.3218 55.2384 31.2892 54.3658 33.0325C53.0212 37.1917 49.1169 40.2001 44.5101 40.2001Z" fill="white" fill-opacity="0.5"/>
</g>
</g>
</g>
</g>
<defs>
<filter id="filter0_f_60_654" x="0.323815" y="2.12411" width="55.7513" height="38.4217" filterUnits="userSpaceOnUse" color-interpolation-filters="sRGB">
<feFlood flood-opacity="0" result="BackgroundImageFix"/>
<feBlend mode="normal" in="SourceGraphic" in2="BackgroundImageFix" result="shape"/>
<feGaussianBlur stdDeviation="0.172809" result="effect1_foregroundBlur_60_654"/>
</filter>
<filter id="filter1_f_60_654" x="0.515074" y="1.25238" width="21.3346" height="16.9293" filterUnits="userSpaceOnUse" color-interpolation-filters="sRGB">
<feFlood flood-opacity="0" result="BackgroundImageFix"/>
<feBlend mode="normal" in="SourceGraphic" in2="BackgroundImageFix" result="shape"/>
<feGaussianBlur stdDeviation="0.864045" result="effect1_foregroundBlur_60_654"/>
</filter>
<filter id="filter2_d_60_654" x="3.11761" y="5.95567" width="56.0681" height="37.0095" filterUnits="userSpaceOnUse" color-interpolation-filters="sRGB">
<feFlood flood-opacity="0" result="BackgroundImageFix"/>
<feColorMatrix in="SourceAlpha" type="matrix" values="0 0 0 0 0 0 0 0 0 0 0 0 0 0 0 0 0 0 127 0" result="hardAlpha"/>
<feOffset dx="0.864045" dy="0.172809"/>
<feGaussianBlur stdDeviation="1.29607"/>
<feColorMatrix type="matrix" values="0 0 0 0 0.258824 0 0 0 0 0.627451 0 0 0 0 0.941176 0 0 0 0.596 0"/>
<feBlend mode="normal" in2="BackgroundImageFix" result="effect1_dropShadow_60_654"/>
<feBlend mode="normal" in="SourceGraphic" in2="effect1_dropShadow_60_654" result="shape"/>
</filter>
<linearGradient id="paint0_linear_60_654" x1="30.2914" y1="8.375" x2="45.0724" y2="44.1119" gradientUnits="userSpaceOnUse">
<stop stop-color="white" stop-opacity="0.604"/>
<stop offset="1" stop-color="white" stop-opacity="0.2"/>
</linearGradient>
</defs>
</svg>
